<?xml version="1.0" standalone="no"?>
<!DOCTYPE svg PUBLIC "-//W3C//DTD SVG 20010904//EN"
 "http://www.w3.org/TR/2001/REC-SVG-20010904/DTD/svg10.dtd">
<svg version="1.0" xmlns="http://www.w3.org/2000/svg"
 width="500.000000pt" height="500.000000pt" viewBox="0 0 500.000000 500.000000"
 preserveAspectRatio="xMidYMid meet">
<metadata>
Created by potrace 1.15, written by Peter Selinger 2001-2017
</metadata>
<g transform="translate(0.000000,500.000000) scale(0.100000,-0.100000)"
fill="#000000" stroke="none">
<path d="M439 4758 c-51 -188 -77 -485 -60 -689 35 -430 177 -756 446 -1024
141 -141 260 -225 460 -325 141 -70 343 -150 380 -150 15 0 113 258 170 445
76 254 114 520 96 673 -19 158 -53 243 -129 324 -105 113 -260 190 -614 306
-135 45 -280 97 -322 116 -162 74 -295 183 -374 304 l-41 63 -12 -43z"/>
</g>
</svg>
